<?xml version="1.0" encoding="utf-8"?>
<!-- Generator: Adobe Illustrator 22.0.1, SVG Export Plug-In . SVG Version: 6.00 Build 0)  -->
<svg version="1.1" baseProfile="tiny" id="Layer_1" xmlns="http://www.w3.org/2000/svg" xmlns:xlink="http://www.w3.org/1999/xlink"
	 x="0px" y="0px" viewBox="0 0 639.6 404.3" xml:space="preserve">
<g>
	<path d="M207.1,344.2c-10.1,0-18-8.2-18-18.5c0-10.4,7.9-18.5,18-18.5c5.1,0,10.4,2.5,14,6.7l5-6.5c-4.9-5-12-8.1-19.2-8.1
		c-14.9,0-26.5,11.5-26.5,26.4c0,15.1,11.5,26.7,26.2,26.7c7.1,0,14.4-3.4,19.5-8.6l-5-5.9C217.3,341.8,212.1,344.2,207.1,344.2z"/>
	<path d="M259.2,299.6l-22.3,52.5h8.9l4.8-11.9h25.4l4.8,11.9h9.1l-22-52.5H259.2z M253.8,332.4l9.5-23.3l9.5,23.3H253.8z"/>
	<polygon points="332.5,334.5 315.8,299.6 305.7,299.6 305.7,352.1 313.7,352.1 313.7,312.9 329.7,346.6 335.2,346.6 351.1,312.9 
		351.2,352.1 359,352.1 359,299.6 349,299.6 	"/>
	<path d="M401.5,299.6h-20.1v52.5h8.5v-15.8h11.6c12.7,0,20-6.9,20-18.8C421.5,306.1,414.2,299.6,401.5,299.6z M401.2,328.3h-11.2
		v-20.8h11.2c7.8,0,12.2,3.3,12.2,10.2C413.3,324.9,409,328.3,401.2,328.3z"/>
	<path d="M473.3,330.3c0,8.9-5.1,14.2-13.3,14.2c-8.3,0-13.5-5.3-13.5-14.2v-30.8H438v30.8c0,13.7,8.4,22.1,22,22.1
		c13.6,0,21.9-8.4,21.9-22.1v-30.8h-8.5V330.3z"/>
	<path d="M510.8,313c0-3.5,3.2-5.5,8.2-5.5c3.8,0,9.3,1.4,14.8,4.9l3.5-7.8c-4.7-3.2-11.1-5.4-17.7-5.4c-11,0-18.4,5.6-18.4,14.6
		c0,18.7,27.2,12.2,27.2,23.9c0,4-3.5,6.4-9.4,6.4c-5.4,0-11.9-2.7-17.1-7.7l-3.7,7.7c5.2,4.9,12.7,8.3,20.6,8.3
		c11.1,0,19-5.8,19-15.2C538,318.3,510.8,324.5,510.8,313z"/>
	<path d="M392.9,266.8c36.5,0,66.2-29.5,66.2-65.9c0-36.4-29.6-65.9-66.2-65.9c-36.6,0-66.2,29.5-66.2,65.9
		C326.7,237.3,356.4,266.8,392.9,266.8z M392.9,166.5c19.1,0,34.7,15.4,34.7,34.5c0,19.1-15.5,34.5-34.7,34.5
		c-19.1,0-34.7-15.4-34.7-34.5C358.2,181.9,373.8,166.5,392.9,166.5z"/>
	<path d="M180.9,266.8h31.5l0-64c0-19.4,15.5-35.2,34.7-35.2c19.1,0,34.7,15.8,34.7,35.2v64h31.5l0-64c0-37.1-29.6-67.2-66.2-67.2
		c-36.5,0-66.2,30.1-66.2,67.2V266.8z"/>
	<path d="M109.5,203.7c0-4.4-0.8-8.6-2.3-12.4l-21.3-55.6H51.9L89.7,234C101.4,229.2,109.5,217.6,109.5,203.7z"/>
	<polygon points="537.9,266.8 588.2,135.6 554.3,135.6 504,266.8 	"/>
	<path d="M511.2,203.6c0-4.4-0.8-8.6-2.3-12.4l-21.3-55.6h-33.9l37.8,98.4C503.1,229.2,511.2,217.5,511.2,203.6z"/>
	<polygon points="152.6,135.6 69.5,352.1 103.4,352.1 186.5,135.6 	"/>
</g>
<g>
	<path d="M91.5,65.1c0,5.5-3.3,9.8-8.8,11.2c6.7,1.2,10.7,6,10.7,12.7c0,8.6-7.1,13.9-18.7,13.9h-23V52.5h22.4
		C84.9,52.5,91.5,57.3,91.5,65.1z M81.6,66.8c0-3.8-3-6-8-6H61.4v12.2h12.2C78.6,73.1,81.6,70.8,81.6,66.8z M83.4,87.8
		c0-4.1-3.7-6.6-9.8-6.6H61.4v13.3h12.2C79.8,94.6,83.4,92.1,83.4,87.8z"/>
	<path d="M152.6,77.6c0,14.6-11.7,26-26.9,26c-15.2,0-26.9-11.4-26.9-26c0-14.7,11.7-25.8,26.9-25.8C140.9,51.8,152.6,63,152.6,77.6
		z M108.7,77.6c0,9.6,7.8,17.3,17.1,17.3c9.2,0,16.8-7.6,16.8-17.3c0-9.6-7.6-17.1-16.8-17.1C116.5,60.5,108.7,67.9,108.7,77.6z"/>
	<path d="M192.6,102.9L183.9,88c-0.6,0.1-1.2,0.1-1.8,0.1h-11.4v14.8h-9.6V52.5h21c13,0,20.4,6.3,20.4,17.4c0,7.9-3.5,13.6-10,16.3
		l11.1,16.7H192.6z M170.7,79.5h11.4c7.2,0,11.2-3.1,11.2-9.4c0-6.2-4-9.2-11.2-9.2h-11.4V79.5z"/>
	<path d="M260.3,77.7c0,14.7-11.1,25.2-26.6,25.2h-20.6V52.5h21C249.3,52.5,260.3,62.9,260.3,77.7z M250.5,77.7
		c0-9.9-7.1-16.8-16.6-16.8h-11.2v33.4h11.5C243.6,94.4,250.5,87.5,250.5,77.7z"/>
	<path d="M305.7,52.5v8.4h-27.3v12.5h24.5v8.4h-24.5v12.7h28.2v8.4h-37.8V52.5H305.7z"/>
	<path d="M349.2,92.2h-24.6l-4.5,10.7h-10l22.1-50.4h10l21.8,50.4h-10.4L349.2,92.2z M345.7,83.9l-8.8-21.2L328,83.9H345.7z"/>
	<path d="M389.9,94.9c7.5,0,12.2-4.7,12.2-12.7V52.5h9.6v29.7c0,13.2-8.4,21.5-21.9,21.5c-13.7,0-22.1-8.2-22.1-21.5V52.5h9.6v29.7
		C377.4,90.1,382.3,94.9,389.9,94.9z"/>
	<path d="M430.3,52.5L441.9,69l11.6-16.6H465L448,76.6l18.4,26.3h-11.6l-12.9-18l-12.7,18h-11.3L436,77l-17-24.6H430.3z"/>
</g>
</svg>
